<mxfile host="app.diagrams.net" agent="Mozilla/5.0 (Windows NT 10.0; Win64; x64) AppleWebKit/537.36 (KHTML, like Gecko) Chrome/127.0.0.0 Safari/537.36" version="24.7.6">
  <diagram name="Halaman-1" id="AOndqH0SW7Roz-42Ylwh">
    <mxGraphModel dx="607" dy="323" grid="1" gridSize="10" guides="1" tooltips="1" connect="1" arrows="1" fold="1" page="1" pageScale="1" pageWidth="827" pageHeight="1169" math="0" shadow="0">
      <root>
        <mxCell id="0" />
        <mxCell id="1" parent="0" />
        <mxCell id="6zPgrm4AGDM5buIm8YUo-1" value="Admin / Mahasiswa" style="swimlane;whiteSpace=wrap;html=1;startSize=30;" parent="1" vertex="1">
          <mxGeometry x="30" y="20" width="200" height="400" as="geometry" />
        </mxCell>
        <mxCell id="6zPgrm4AGDM5buIm8YUo-2" style="edgeStyle=orthogonalEdgeStyle;rounded=0;orthogonalLoop=1;jettySize=auto;html=1;entryX=0.5;entryY=0;entryDx=0;entryDy=0;" parent="6zPgrm4AGDM5buIm8YUo-1" source="6zPgrm4AGDM5buIm8YUo-3" target="015KkxPmyVoNFCjr6EXJ-2" edge="1">
          <mxGeometry relative="1" as="geometry">
            <mxPoint x="95" y="110" as="targetPoint" />
          </mxGeometry>
        </mxCell>
        <mxCell id="6zPgrm4AGDM5buIm8YUo-3" value="" style="ellipse;html=1;shape=startState;fillColor=#000000;strokeColor=#ff0000;" parent="6zPgrm4AGDM5buIm8YUo-1" vertex="1">
          <mxGeometry x="80" y="40" width="30" height="30" as="geometry" />
        </mxCell>
        <mxCell id="015KkxPmyVoNFCjr6EXJ-2" value="Menekan Tombol Start Game" style="whiteSpace=wrap;html=1;rounded=1;" parent="6zPgrm4AGDM5buIm8YUo-1" vertex="1">
          <mxGeometry x="35" y="110" width="120" height="60" as="geometry" />
        </mxCell>
        <mxCell id="5e39fvMcxzuDOB-gWboW-4" value="Menggerakan Joystick / Memilih Tombol Yang Ingin Dipilih" style="whiteSpace=wrap;html=1;rounded=1;" parent="6zPgrm4AGDM5buIm8YUo-1" vertex="1">
          <mxGeometry x="35" y="230" width="120" height="60" as="geometry" />
        </mxCell>
        <mxCell id="6zPgrm4AGDM5buIm8YUo-6" value="Sistem" style="swimlane;whiteSpace=wrap;html=1;startSize=30;" parent="1" vertex="1">
          <mxGeometry x="230" y="20" width="250" height="400" as="geometry" />
        </mxCell>
        <mxCell id="5e39fvMcxzuDOB-gWboW-2" value="Menampilkan Scene Gameplay" style="whiteSpace=wrap;html=1;rounded=1;" parent="6zPgrm4AGDM5buIm8YUo-6" vertex="1">
          <mxGeometry x="65" y="110" width="120" height="60" as="geometry" />
        </mxCell>
        <mxCell id="5e39fvMcxzuDOB-gWboW-11" style="edgeStyle=orthogonalEdgeStyle;rounded=0;orthogonalLoop=1;jettySize=auto;html=1;entryX=0.5;entryY=0;entryDx=0;entryDy=0;" parent="6zPgrm4AGDM5buIm8YUo-6" source="5e39fvMcxzuDOB-gWboW-8" target="5e39fvMcxzuDOB-gWboW-10" edge="1">
          <mxGeometry relative="1" as="geometry" />
        </mxCell>
        <mxCell id="5e39fvMcxzuDOB-gWboW-8" value="Menjalankan Aksi / Tombol Yang Dipilih" style="whiteSpace=wrap;html=1;rounded=1;" parent="6zPgrm4AGDM5buIm8YUo-6" vertex="1">
          <mxGeometry x="65" y="230" width="120" height="60" as="geometry" />
        </mxCell>
        <mxCell id="5e39fvMcxzuDOB-gWboW-10" value="" style="ellipse;html=1;shape=endState;fillColor=#000000;strokeColor=#ff0000;" parent="6zPgrm4AGDM5buIm8YUo-6" vertex="1">
          <mxGeometry x="110" y="340" width="30" height="30" as="geometry" />
        </mxCell>
        <mxCell id="015KkxPmyVoNFCjr6EXJ-26" value="" style="edgeStyle=orthogonalEdgeStyle;rounded=0;orthogonalLoop=1;jettySize=auto;html=1;exitX=1;exitY=0.5;exitDx=0;exitDy=0;entryX=0;entryY=0.5;entryDx=0;entryDy=0;" parent="1" source="015KkxPmyVoNFCjr6EXJ-2" target="5e39fvMcxzuDOB-gWboW-2" edge="1">
          <mxGeometry relative="1" as="geometry">
            <mxPoint x="175" y="182.27857142857135" as="sourcePoint" />
            <mxPoint x="300" y="160" as="targetPoint" />
          </mxGeometry>
        </mxCell>
        <mxCell id="5e39fvMcxzuDOB-gWboW-5" style="edgeStyle=orthogonalEdgeStyle;rounded=0;orthogonalLoop=1;jettySize=auto;html=1;entryX=0.5;entryY=0;entryDx=0;entryDy=0;exitX=0.5;exitY=1;exitDx=0;exitDy=0;" parent="1" source="5e39fvMcxzuDOB-gWboW-2" target="5e39fvMcxzuDOB-gWboW-4" edge="1">
          <mxGeometry relative="1" as="geometry">
            <Array as="points">
              <mxPoint x="355" y="230" />
              <mxPoint x="125" y="230" />
            </Array>
          </mxGeometry>
        </mxCell>
        <mxCell id="5e39fvMcxzuDOB-gWboW-9" style="edgeStyle=orthogonalEdgeStyle;rounded=0;orthogonalLoop=1;jettySize=auto;html=1;entryX=0;entryY=0.5;entryDx=0;entryDy=0;" parent="1" source="5e39fvMcxzuDOB-gWboW-4" target="5e39fvMcxzuDOB-gWboW-8" edge="1">
          <mxGeometry relative="1" as="geometry" />
        </mxCell>
      </root>
    </mxGraphModel>
  </diagram>
</mxfile>
